<svg width="48" height="52" viewBox="0 0 48 52" fill="none" xmlns="http://www.w3.org/2000/svg">
<g id="icon-primeract">
<g id="base">
<mask id="mask0_478_1171" style="mask-type:luminance" maskUnits="userSpaceOnUse" x="0" y="0" width="48" height="52">
<path id="path-1" fill-rule="evenodd" clip-rule="evenodd" d="M0 0H47.4805V51.7056H0V0Z" fill="white"/>
</mask>
<g mask="url(#mask0_478_1171)">
<path id="bg-base" fill-rule="evenodd" clip-rule="evenodd" d="M46.519 19.7341L42.9726 25.8204L46.512 31.8948C47.8033 34.1107 47.8033 36.7566 46.5121 38.9725C45.2209 41.1885 42.9081 42.5115 40.3256 42.5115H33.2466L29.973 48.1294C28.6683 50.3687 26.3312 51.7056 23.7215 51.7056C21.1117 51.7056 18.7746 50.3687 17.4697 48.1294L14.1962 42.5115H7.10318C4.53939 42.5115 2.24341 41.1981 0.96148 38.9982C-0.320447 36.7982 -0.320447 34.1714 0.96148 31.9715L4.50795 25.8852L0.968437 19.8109C-0.322812 17.595 -0.322812 14.949 0.968437 12.7331C2.25969 10.517 4.57244 9.19409 7.15494 9.19409H14.234L17.5075 3.57627C18.8122 1.33709 21.1496 0 23.7592 0C26.369 0 28.7059 1.33695 30.0108 3.57627L33.2843 9.19409H40.3773C42.9412 9.19409 45.2372 10.5075 46.5191 12.7074C47.801 14.9074 47.801 17.5342 46.519 19.7341ZM23.7592 1.54851C21.7144 1.54844 19.8833 2.59593 18.8609 4.35049L16.0385 9.19409H31.4797L28.6573 4.35049C27.635 2.59593 25.8039 1.54851 23.7592 1.54851ZM33.0981 39.6695L33.0223 39.7996L33.0112 39.8186L32.8292 40.1309L31.8619 41.7912L31.6953 42.077L29.6851 45.527L29.0789 46.5671L28.652 47.2997L28.6359 47.3034L28.6263 47.3199C27.604 49.0745 25.739 49.5799 23.6943 49.5798C21.6525 49.5798 19.8576 49.0773 18.8345 47.3273L18.8022 47.3192L17.7646 45.5385L17.5046 45.0925L6.31252 25.8852L8.3426 22.4014L8.34287 22.4026L11.9236 16.2606L11.9211 16.2601L12.3276 15.5627L12.3302 15.5632L15.1406 10.7425L32.3826 10.7365L41.168 25.8205L33.0981 39.6695ZM45.1587 38.1984C44.1499 39.9295 42.3431 40.963 40.3256 40.963H34.1489L42.0702 27.3689L45.1586 32.6689C46.1674 34.4001 46.1674 36.4672 45.1587 38.1984ZM2.31493 38.2239C3.31438 39.9391 5.10435 40.963 7.10318 40.963H13.2939L5.41027 27.4337L2.31493 32.7456C1.31555 34.4608 1.31555 36.5088 2.31493 38.2239ZM2.32196 19.0367C1.31318 17.3055 1.31318 15.2384 2.32196 13.5073C3.33066 11.7761 5.1374 10.7425 7.15494 10.7425H13.3316L5.41027 24.3367L2.32196 19.0367ZM40.3773 10.7425C42.3762 10.7425 44.1663 11.7665 45.1657 13.4817C46.1651 15.1968 46.165 17.2447 45.1657 18.9599L42.0702 24.272L34.1867 10.7425H40.3773Z" fill="#03C4E8"/>
</g>
</g>
<g id="head">
<path id="chick-right" d="M32.1644 28.2914L29.502 27.706L31.5727 30.6327V39.7056L38.1326 33.8521L38.6726 23.9013L35.4185 25.072L32.1644 28.2914Z" fill="#03C4E8"/>
<path id="chick-left" d="M15.5993 28.2914L18.2617 27.706L16.1909 30.6327V39.7056L9.63111 33.8521L9.09111 23.9013L12.3452 25.072L15.5993 28.2914Z" fill="#03C4E8"/>
<path id="mask" fill-rule="evenodd" clip-rule="evenodd" d="M17.0781 31.2181L19.4447 27.706L20.9239 28.584H26.8404L28.3195 27.706L30.6861 31.2181V44.3883L27.9204 49.6111H19.3039L17.0781 44.3883V31.2181Z" fill="#03C4E8"/>
<path id="bottom-chick-right" d="M31.5723 45.2663L35.418 41.4616V37.6569L31.5723 40.8762V45.2663Z" fill="#03C4E8"/>
<path id="bottom-chick-left" d="M16.1895 45.2663L12.3437 41.4616V37.6569L16.1895 40.8762V45.2663Z" fill="#03C4E8"/>
<path id="head_2" fill-rule="evenodd" clip-rule="evenodd" d="M20.0365 10.7311L17.6699 16.2918L21.5157 27.4134H23.2906V10.7311H20.0365ZM24.4739 10.7311V27.4134H26.5447L30.0946 16.2918L27.728 10.7311H24.4739Z" fill="#03C4E8"/>
<path id="head-left" d="M21.515 27.4134L8.79449 22.7306L7.01953 15.4138L17.9651 16.2918L21.8108 27.4134H21.515Z" fill="#03C4E8"/>
<path id="head-right" d="M26.5436 27.4134L39.2641 22.7306L41.0391 15.4138L29.7977 16.2918L26.2478 27.4134H26.5436Z" fill="#03C4E8"/>
<path id="ear-right" d="M30.686 15.4138L36.3584 14.8285L32.7568 10.7311H28.6152L30.686 15.4138Z" fill="#03C4E8"/>
<path id="ear-left" d="M17.0777 15.4138L11.4053 14.8285L15.0069 10.7311H19.1484L17.0777 15.4138Z" fill="#03C4E8"/>
</g>
</g>
</svg>
