<svg width="25" height="25" viewBox="0 0 25 25" fill="none" xmlns="http://www.w3.org/2000/svg">
<g id="star-fill">
<path id="Vector" d="M24.6176 9.69635C24.5627 9.52225 24.4599 9.36718 24.3208 9.24896C24.1817 9.13074 24.0121 9.05419 23.8314 9.02809L16.7296 7.99295L13.5455 1.55936C13.4549 1.40733 13.3264 1.28144 13.1725 1.19401C13.0186 1.10659 12.8446 1.06062 12.6676 1.06062C12.4906 1.06062 12.3167 1.10659 12.1628 1.19401C12.0089 1.28144 11.8804 1.40733 11.7897 1.55936L8.60569 7.99295L1.50384 9.02809C1.32318 9.05419 1.15356 9.13074 1.01448 9.24896C0.875402 9.36718 0.772516 9.52225 0.717658 9.69635C0.659093 9.8698 0.650142 10.0562 0.691814 10.2344C0.733487 10.4127 0.824125 10.5758 0.953513 10.7053L6.11611 15.7106L4.89753 22.7863C4.86664 22.9685 4.88705 23.1556 4.95647 23.3269C5.02589 23.4981 5.14159 23.6467 5.29062 23.7559C5.43989 23.8623 5.61592 23.9248 5.79884 23.9364C5.98176 23.9479 6.16427 23.9081 6.32576 23.8214L12.6676 20.4802L19.0226 23.8214C19.1632 23.8986 19.3209 23.9391 19.4812 23.9394C19.6874 23.937 19.8881 23.8731 20.0577 23.7559C20.2068 23.6467 20.3225 23.4981 20.3919 23.3269C20.4613 23.1556 20.4817 22.9685 20.4508 22.7863L19.2192 15.7106L24.3686 10.7053C24.5003 10.5772 24.5934 10.4147 24.6374 10.2364C24.6814 10.0581 24.6745 9.87098 24.6176 9.69635Z" fill="#03C4E8"/>
</g>
</svg>
