<svg width="44" height="34" viewBox="0 0 171 29" fill="none" xmlns="http://www.w3.org/2000/svg">
<g id="text-primereact">
<path id="PRIME" fill-rule="evenodd" clip-rule="evenodd" d="M0.980469 28.4176V1.28798C0.980469 0.934728 1.19242 0.722778 1.54567 0.722778H10.0237C13.3442 0.722778 15.1105 2.48903 15.1105 5.80958V14.4289C15.1105 17.7141 13.3442 19.5157 10.0237 19.5157H5.78467V28.4176C5.78467 28.7708 5.60804 28.9828 5.21947 28.9828H1.54567C1.19242 28.9828 0.980469 28.7708 0.980469 28.4176ZM5.7832 14.8528H8.8918C9.84558 14.8528 10.3048 14.3229 10.3048 13.4398V6.79867C10.3048 5.88022 9.84558 5.38567 8.8918 5.38567H5.7832V14.8528ZM32.8076 14.4289V5.80958C32.8076 2.48903 31.0414 0.722778 27.7208 0.722778H18.8543C18.501 0.722778 18.2891 0.934728 18.2891 1.28798V28.4176C18.2891 28.7708 18.501 28.9828 18.8543 28.9828H22.5281C22.8813 28.9828 23.0933 28.7708 23.0933 28.4176V19.5157H25.5307L27.8975 28.4882C27.9681 28.8062 28.1447 28.9828 28.498 28.9828H32.1718C32.5604 28.9828 32.7723 28.7708 32.6663 28.3469L30.2289 19.0918C31.9245 18.35 32.8076 16.7957 32.8076 14.4289ZM23.0957 14.8528H26.5929C27.5113 14.8528 28.0059 14.3582 28.0059 13.4398V6.79867C28.0059 5.88022 27.5113 5.38567 26.5929 5.38567H23.0957V14.8528ZM40.5808 0.722778H36.907C36.5184 0.722778 36.3418 0.934728 36.3418 1.28798V28.4176C36.3418 28.7708 36.5184 28.9828 36.907 28.9828H40.5808C40.934 28.9828 41.146 28.7708 41.146 28.4176V1.28798C41.146 0.934728 40.934 0.722778 40.5808 0.722778ZM59.4436 0.722778H64.1065C64.5657 0.722778 64.813 0.970053 64.813 1.42928V28.2763C64.813 28.7355 64.5657 28.9828 64.1065 28.9828H60.8213C60.362 28.9828 60.1148 28.7355 60.1148 28.2763V12.38H59.8675L56.3703 28.3469C56.2643 28.7708 56.0171 28.9828 55.5932 28.9828H53.8622C53.4383 28.9828 53.1911 28.7708 53.0851 28.3469L49.5879 12.38H49.3406V28.2763C49.3406 28.7355 49.0934 28.9828 48.6341 28.9828H45.3842C44.925 28.9828 44.6777 28.7355 44.6777 28.2763V1.42928C44.6777 0.970053 44.925 0.722778 45.3842 0.722778H50.0471C50.471 0.722778 50.7183 0.934728 50.8243 1.35863L54.7454 18.9505L58.6664 1.35863C58.7724 0.934728 59.0197 0.722778 59.4436 0.722778ZM82.4404 4.82048V1.28798C82.4404 0.934728 82.2991 0.722778 81.8752 0.722778H68.8756C68.5577 0.722778 68.3457 0.934728 68.3457 1.28798V28.4176C68.3457 28.7708 68.5577 28.9828 68.8756 28.9828H81.8752C82.2991 28.9828 82.4404 28.7708 82.4404 28.4176V24.8851C82.4404 24.4965 82.2991 24.3199 81.8752 24.3199H73.0439V17.1842H79.791C80.1443 17.1842 80.3562 16.9723 80.3562 16.5837V13.0865C80.3562 12.698 80.1443 12.486 79.791 12.486H73.0439V5.421H81.8752C82.2991 5.421 82.4404 5.17373 82.4404 4.82048Z" fill="white"/>
<path id="REACT" fill-rule="evenodd" clip-rule="evenodd" d="M99.958 5.80958V14.4289C99.958 16.7957 99.0749 18.35 97.3793 19.0918L99.8167 28.3469C99.9227 28.7708 99.7108 28.9828 99.3222 28.9828H95.6484C95.2951 28.9828 95.1185 28.8062 95.0479 28.4882L92.6811 19.5157H90.2437V28.4176C90.2437 28.7708 90.0317 28.9828 89.6785 28.9828H86.0047C85.6514 28.9828 85.4395 28.7708 85.4395 28.4176V1.28798C85.4395 0.934728 85.6514 0.722778 86.0047 0.722778H94.8712C98.1918 0.722778 99.958 2.48903 99.958 5.80958ZM90.2422 14.8528H93.7394C94.6579 14.8528 95.1524 14.3582 95.1524 13.4398V6.79868C95.1524 5.88023 94.6579 5.38568 93.7394 5.38568H90.2422V14.8528ZM117.585 4.82048V1.28798C117.585 0.934728 117.444 0.722778 117.02 0.722778H104.02C103.702 0.722778 103.49 0.934728 103.49 1.28798V28.4176C103.49 28.7708 103.702 28.9828 104.02 28.9828H117.02C117.444 28.9828 117.585 28.7708 117.585 28.4176V24.8851C117.585 24.4965 117.444 24.3199 117.02 24.3199H108.189V17.1842H114.936C115.289 17.1842 115.501 16.9723 115.501 16.5837V13.0865C115.501 12.698 115.289 12.486 114.936 12.486H108.189V5.421H117.02C117.444 5.421 117.585 5.17373 117.585 4.82048ZM137.086 28.9828H133.341C133.023 28.9828 132.847 28.8062 132.776 28.4882L131.787 23.3308H125.499L124.545 28.4882C124.475 28.8062 124.298 28.9828 123.98 28.9828H120.2C119.812 28.9828 119.635 28.7708 119.741 28.3823L125.605 1.21733C125.676 0.864078 125.888 0.722778 126.206 0.722778H131.116C131.434 0.722778 131.646 0.864078 131.716 1.21733L137.58 28.3823C137.651 28.7708 137.51 28.9828 137.086 28.9828ZM128.644 6.90465L130.904 19.2331H126.383L128.644 6.90465ZM154.216 5.80958V9.62468C154.216 9.97793 154.004 10.1899 153.651 10.1899H150.118C149.73 10.1899 149.553 9.97793 149.553 9.62468V6.79868C149.553 5.88023 149.059 5.38568 148.14 5.38568H146.303C145.35 5.38568 144.89 5.88023 144.89 6.79868V22.9069C144.89 23.8607 145.385 24.3199 146.303 24.3199H148.14C149.059 24.3199 149.553 23.8607 149.553 22.9069V20.0809C149.553 19.7276 149.73 19.5157 150.118 19.5157H153.651C154.004 19.5157 154.216 19.7276 154.216 20.0809V23.896C154.216 27.2165 152.415 28.9828 149.129 28.9828H145.173C141.852 28.9828 140.051 27.2165 140.051 23.896V5.80958C140.051 2.48903 141.852 0.722778 145.173 0.722778H149.129C152.415 0.722778 154.216 2.48903 154.216 5.80958ZM169.547 0.722778H156.548C156.194 0.722778 155.982 0.934728 155.982 1.28798V4.82048C155.982 5.17373 156.194 5.38568 156.548 5.38568H160.645V28.4176C160.645 28.8062 160.857 28.9828 161.211 28.9828H164.884C165.273 28.9828 165.45 28.8062 165.45 28.4176V5.38568H169.547C169.936 5.38568 170.112 5.17373 170.112 4.82048V1.28798C170.112 0.934728 169.936 0.722778 169.547 0.722778Z" fill="#03C4E8"/>
</g>
</svg>
